<mxfile host="app.diagrams.net" agent="Mozilla/5.0 (X11; Linux x86_64) AppleWebKit/537.36 (KHTML, like Gecko) Chrome/132.0.0.0 Safari/537.36" version="26.0.11">
  <diagram id="C5RBs43oDa-KdzZeNtuy" name="Page-1">
    <mxGraphModel dx="1166" dy="610" grid="1" gridSize="10" guides="1" tooltips="1" connect="1" arrows="1" fold="1" page="1" pageScale="1" pageWidth="827" pageHeight="1169" math="0" shadow="0">
      <root>
        <mxCell id="WIyWlLk6GJQsqaUBKTNV-0" />
        <mxCell id="WIyWlLk6GJQsqaUBKTNV-1" parent="WIyWlLk6GJQsqaUBKTNV-0" />
        <mxCell id="Y8zr_RzLdDFg9VIO7SR1-21" style="edgeStyle=orthogonalEdgeStyle;rounded=0;orthogonalLoop=1;jettySize=auto;html=1;entryX=0;entryY=0.5;entryDx=0;entryDy=0;" edge="1" parent="WIyWlLk6GJQsqaUBKTNV-1" source="WIyWlLk6GJQsqaUBKTNV-3" target="Y8zr_RzLdDFg9VIO7SR1-20">
          <mxGeometry relative="1" as="geometry" />
        </mxCell>
        <mxCell id="WIyWlLk6GJQsqaUBKTNV-3" value="&lt;b&gt;&lt;font style=&quot;color: light-dark(rgb(0, 0, 0), rgb(255, 0, 0));&quot;&gt;&amp;nbsp;SETUP&lt;/font&gt;&lt;/b&gt;&lt;div&gt;Wird einmalig beim Starten des Prozessors ausgeführt, um die nächsten Schritte vorzubereiten.&lt;/div&gt;" style="rounded=1;whiteSpace=wrap;html=1;fontSize=12;glass=0;strokeWidth=1;shadow=0;" parent="WIyWlLk6GJQsqaUBKTNV-1" vertex="1">
          <mxGeometry x="70" y="340" width="190" height="70" as="geometry" />
        </mxCell>
        <mxCell id="Y8zr_RzLdDFg9VIO7SR1-41" style="edgeStyle=orthogonalEdgeStyle;rounded=0;orthogonalLoop=1;jettySize=auto;html=1;exitX=1;exitY=0.5;exitDx=0;exitDy=0;entryX=0;entryY=0.5;entryDx=0;entryDy=0;fontStyle=1" edge="1" parent="WIyWlLk6GJQsqaUBKTNV-1" source="WIyWlLk6GJQsqaUBKTNV-6" target="Y8zr_RzLdDFg9VIO7SR1-31">
          <mxGeometry relative="1" as="geometry" />
        </mxCell>
        <mxCell id="Y8zr_RzLdDFg9VIO7SR1-50" value="&lt;b&gt;&lt;font style=&quot;color: light-dark(rgb(0, 0, 0), rgb(255, 0, 0));&quot;&gt;JA&lt;/font&gt;&lt;/b&gt;" style="edgeLabel;html=1;align=center;verticalAlign=middle;resizable=0;points=[];" vertex="1" connectable="0" parent="Y8zr_RzLdDFg9VIO7SR1-41">
          <mxGeometry x="-0.1733" y="1" relative="1" as="geometry">
            <mxPoint as="offset" />
          </mxGeometry>
        </mxCell>
        <mxCell id="Y8zr_RzLdDFg9VIO7SR1-45" style="edgeStyle=orthogonalEdgeStyle;rounded=0;orthogonalLoop=1;jettySize=auto;html=1;entryX=0.5;entryY=1;entryDx=0;entryDy=0;" edge="1" parent="WIyWlLk6GJQsqaUBKTNV-1" source="WIyWlLk6GJQsqaUBKTNV-6" target="Y8zr_RzLdDFg9VIO7SR1-32">
          <mxGeometry relative="1" as="geometry">
            <mxPoint x="260" y="630" as="targetPoint" />
            <Array as="points">
              <mxPoint x="165" y="620" />
              <mxPoint x="605" y="620" />
            </Array>
          </mxGeometry>
        </mxCell>
        <mxCell id="Y8zr_RzLdDFg9VIO7SR1-51" value="&lt;b&gt;&lt;font style=&quot;color: light-dark(rgb(0, 0, 0), rgb(255, 0, 0));&quot;&gt;NEIN&lt;/font&gt;&lt;/b&gt;" style="edgeLabel;html=1;align=center;verticalAlign=middle;resizable=0;points=[];" vertex="1" connectable="0" parent="Y8zr_RzLdDFg9VIO7SR1-45">
          <mxGeometry x="-0.072" y="-1" relative="1" as="geometry">
            <mxPoint as="offset" />
          </mxGeometry>
        </mxCell>
        <mxCell id="WIyWlLk6GJQsqaUBKTNV-6" value="&lt;div&gt;&lt;span style=&quot;font-size: 11px; background-color: transparent; color: light-dark(rgb(0, 0, 0), rgb(255, 255, 255));&quot;&gt;Benötigt der aktuelle&amp;nbsp;&lt;/span&gt;&lt;/div&gt;&lt;div&gt;&lt;span style=&quot;font-size: 11px; background-color: transparent; color: light-dark(rgb(0, 0, 0), rgb(255, 255, 255));&quot;&gt;Befehl Speicherzugriff?&lt;/span&gt;&lt;/div&gt;" style="rhombus;whiteSpace=wrap;html=1;shadow=0;fontFamily=Helvetica;fontSize=12;align=center;strokeWidth=1;spacing=6;spacingTop=-4;" parent="WIyWlLk6GJQsqaUBKTNV-1" vertex="1">
          <mxGeometry x="70" y="525" width="190" height="80" as="geometry" />
        </mxCell>
        <mxCell id="Y8zr_RzLdDFg9VIO7SR1-23" style="edgeStyle=orthogonalEdgeStyle;rounded=0;orthogonalLoop=1;jettySize=auto;html=1;entryX=0;entryY=0.5;entryDx=0;entryDy=0;" edge="1" parent="WIyWlLk6GJQsqaUBKTNV-1" source="Y8zr_RzLdDFg9VIO7SR1-20" target="Y8zr_RzLdDFg9VIO7SR1-22">
          <mxGeometry relative="1" as="geometry" />
        </mxCell>
        <mxCell id="Y8zr_RzLdDFg9VIO7SR1-20" value="&lt;b&gt;&lt;font style=&quot;color: light-dark(rgb(0, 0, 0), rgb(255, 0, 0));&quot;&gt;&amp;nbsp;FETCH SETUP&lt;/font&gt;&lt;/b&gt;&lt;div&gt;Der Speicherzugriff wird vorbereitet&lt;/div&gt;" style="rounded=1;whiteSpace=wrap;html=1;fontSize=12;glass=0;strokeWidth=1;shadow=0;" vertex="1" parent="WIyWlLk6GJQsqaUBKTNV-1">
          <mxGeometry x="290" y="340" width="190" height="70" as="geometry" />
        </mxCell>
        <mxCell id="Y8zr_RzLdDFg9VIO7SR1-25" style="edgeStyle=orthogonalEdgeStyle;rounded=0;orthogonalLoop=1;jettySize=auto;html=1;entryX=0.5;entryY=0;entryDx=0;entryDy=0;" edge="1" parent="WIyWlLk6GJQsqaUBKTNV-1" source="Y8zr_RzLdDFg9VIO7SR1-22" target="Y8zr_RzLdDFg9VIO7SR1-24">
          <mxGeometry relative="1" as="geometry" />
        </mxCell>
        <mxCell id="Y8zr_RzLdDFg9VIO7SR1-22" value="&lt;b&gt;&lt;font style=&quot;color: light-dark(rgb(0, 0, 0), rgb(255, 0, 0));&quot;&gt;&amp;nbsp;FETCH MEMORY ACCESS&lt;/font&gt;&lt;/b&gt;&lt;div&gt;Der aktuelle Befehl wird aus dem Speicher geladen&lt;/div&gt;" style="rounded=1;whiteSpace=wrap;html=1;fontSize=12;glass=0;strokeWidth=1;shadow=0;" vertex="1" parent="WIyWlLk6GJQsqaUBKTNV-1">
          <mxGeometry x="510" y="340" width="190" height="70" as="geometry" />
        </mxCell>
        <mxCell id="Y8zr_RzLdDFg9VIO7SR1-36" style="edgeStyle=orthogonalEdgeStyle;rounded=0;orthogonalLoop=1;jettySize=auto;html=1;exitX=0;exitY=0.5;exitDx=0;exitDy=0;entryX=1;entryY=0.5;entryDx=0;entryDy=0;" edge="1" parent="WIyWlLk6GJQsqaUBKTNV-1" source="Y8zr_RzLdDFg9VIO7SR1-24" target="Y8zr_RzLdDFg9VIO7SR1-35">
          <mxGeometry relative="1" as="geometry" />
        </mxCell>
        <mxCell id="Y8zr_RzLdDFg9VIO7SR1-24" value="&lt;b&gt;&lt;font style=&quot;color: light-dark(rgb(0, 0, 0), rgb(255, 0, 0));&quot;&gt;&amp;nbsp;DECODE&lt;/font&gt;&lt;/b&gt;&lt;div&gt;&lt;font style=&quot;font-size: 10px;&quot;&gt;Basierend auf dem aktuellen Befehl werden den anderen Komponenten Anweisungen gegeben, was zu tun ist.&lt;/font&gt;&lt;/div&gt;" style="rounded=1;whiteSpace=wrap;html=1;fontSize=12;glass=0;strokeWidth=1;shadow=0;" vertex="1" parent="WIyWlLk6GJQsqaUBKTNV-1">
          <mxGeometry x="510" y="435" width="190" height="70" as="geometry" />
        </mxCell>
        <mxCell id="Y8zr_RzLdDFg9VIO7SR1-44" style="edgeStyle=orthogonalEdgeStyle;rounded=0;orthogonalLoop=1;jettySize=auto;html=1;entryX=0.5;entryY=0;entryDx=0;entryDy=0;" edge="1" parent="WIyWlLk6GJQsqaUBKTNV-1" source="Y8zr_RzLdDFg9VIO7SR1-26" target="WIyWlLk6GJQsqaUBKTNV-6">
          <mxGeometry relative="1" as="geometry" />
        </mxCell>
        <mxCell id="Y8zr_RzLdDFg9VIO7SR1-26" value="&lt;b&gt;&lt;font style=&quot;color: light-dark(rgb(0, 0, 0), rgb(255, 17, 17));&quot;&gt;&amp;nbsp;&lt;/font&gt;&lt;font style=&quot;color: light-dark(rgb(0, 0, 0), rgb(255, 0, 0));&quot;&gt;EXECUTE&lt;/font&gt;&lt;/b&gt;&lt;div&gt;&lt;font style=&quot;font-size: 11px;&quot;&gt;Die Kontrolleinheit wartet, bis die anderen Komponenten die nötigen Schitte ausgeführt haben.&lt;/font&gt;&lt;/div&gt;" style="rounded=1;whiteSpace=wrap;html=1;fontSize=12;glass=0;strokeWidth=1;shadow=0;" vertex="1" parent="WIyWlLk6GJQsqaUBKTNV-1">
          <mxGeometry x="70" y="435" width="190" height="70" as="geometry" />
        </mxCell>
        <mxCell id="Y8zr_RzLdDFg9VIO7SR1-46" style="edgeStyle=orthogonalEdgeStyle;rounded=0;orthogonalLoop=1;jettySize=auto;html=1;entryX=0;entryY=0.5;entryDx=0;entryDy=0;" edge="1" parent="WIyWlLk6GJQsqaUBKTNV-1" source="Y8zr_RzLdDFg9VIO7SR1-31" target="Y8zr_RzLdDFg9VIO7SR1-32">
          <mxGeometry relative="1" as="geometry" />
        </mxCell>
        <mxCell id="Y8zr_RzLdDFg9VIO7SR1-31" value="&lt;b&gt;&lt;font style=&quot;color: light-dark(rgb(0, 0, 0), rgb(255, 0, 0));&quot;&gt;&amp;nbsp;MEMORY ACCESS&lt;/font&gt;&lt;/b&gt;&lt;div&gt;&lt;font style=&quot;font-size: 11px;&quot;&gt;Kontrolleinheit wartet, bis Speicherzugriff abgeschlossen ist.&lt;/font&gt;&lt;/div&gt;" style="rounded=1;whiteSpace=wrap;html=1;fontSize=12;glass=0;strokeWidth=1;shadow=0;" vertex="1" parent="WIyWlLk6GJQsqaUBKTNV-1">
          <mxGeometry x="290" y="530" width="190" height="70" as="geometry" />
        </mxCell>
        <mxCell id="Y8zr_RzLdDFg9VIO7SR1-47" style="edgeStyle=orthogonalEdgeStyle;rounded=0;orthogonalLoop=1;jettySize=auto;html=1;entryX=0.5;entryY=0;entryDx=0;entryDy=0;" edge="1" parent="WIyWlLk6GJQsqaUBKTNV-1" source="Y8zr_RzLdDFg9VIO7SR1-32" target="Y8zr_RzLdDFg9VIO7SR1-20">
          <mxGeometry relative="1" as="geometry">
            <mxPoint x="730" y="320" as="targetPoint" />
            <Array as="points">
              <mxPoint x="710" y="565" />
              <mxPoint x="710" y="320" />
              <mxPoint x="385" y="320" />
            </Array>
          </mxGeometry>
        </mxCell>
        <mxCell id="Y8zr_RzLdDFg9VIO7SR1-32" value="&lt;div&gt;&lt;font style=&quot;color: light-dark(rgb(255, 17, 17), rgb(255, 0, 0));&quot;&gt;&lt;b style=&quot;&quot;&gt;WRITEBACK&lt;/b&gt;&lt;/font&gt;&lt;/div&gt;&lt;div&gt;&lt;font style=&quot;font-size: 11px;&quot;&gt;Daten werden zurück in die nötigen Register geladen und der&lt;b&gt; FETCH SETUP&lt;/b&gt; Schritt wird vorbereitet.&lt;/font&gt;&lt;/div&gt;" style="rounded=1;whiteSpace=wrap;html=1;fontSize=12;glass=0;strokeWidth=1;shadow=0;" vertex="1" parent="WIyWlLk6GJQsqaUBKTNV-1">
          <mxGeometry x="510" y="530" width="190" height="70" as="geometry" />
        </mxCell>
        <mxCell id="Y8zr_RzLdDFg9VIO7SR1-37" style="edgeStyle=orthogonalEdgeStyle;rounded=0;orthogonalLoop=1;jettySize=auto;html=1;exitX=0;exitY=0.5;exitDx=0;exitDy=0;entryX=1;entryY=0.5;entryDx=0;entryDy=0;" edge="1" parent="WIyWlLk6GJQsqaUBKTNV-1" source="Y8zr_RzLdDFg9VIO7SR1-35" target="Y8zr_RzLdDFg9VIO7SR1-26">
          <mxGeometry relative="1" as="geometry" />
        </mxCell>
        <mxCell id="Y8zr_RzLdDFg9VIO7SR1-48" value="&lt;b&gt;&lt;font style=&quot;color: light-dark(rgb(0, 0, 0), rgb(255, 0, 0));&quot;&gt;JA&lt;/font&gt;&lt;/b&gt;" style="edgeLabel;html=1;align=center;verticalAlign=middle;resizable=0;points=[];" vertex="1" connectable="0" parent="Y8zr_RzLdDFg9VIO7SR1-37">
          <mxGeometry x="-0.0933" y="1" relative="1" as="geometry">
            <mxPoint as="offset" />
          </mxGeometry>
        </mxCell>
        <mxCell id="Y8zr_RzLdDFg9VIO7SR1-39" style="edgeStyle=orthogonalEdgeStyle;rounded=0;orthogonalLoop=1;jettySize=auto;html=1;entryX=0.5;entryY=1;entryDx=0;entryDy=0;" edge="1" parent="WIyWlLk6GJQsqaUBKTNV-1" source="Y8zr_RzLdDFg9VIO7SR1-35" target="Y8zr_RzLdDFg9VIO7SR1-20">
          <mxGeometry relative="1" as="geometry" />
        </mxCell>
        <mxCell id="Y8zr_RzLdDFg9VIO7SR1-49" value="&lt;b&gt;&lt;font style=&quot;color: light-dark(rgb(0, 0, 0), rgb(255, 0, 0));&quot;&gt;NEIN&lt;/font&gt;&lt;/b&gt;" style="edgeLabel;html=1;align=center;verticalAlign=middle;resizable=0;points=[];" vertex="1" connectable="0" parent="Y8zr_RzLdDFg9VIO7SR1-39">
          <mxGeometry x="0.5667" y="-1" relative="1" as="geometry">
            <mxPoint as="offset" />
          </mxGeometry>
        </mxCell>
        <mxCell id="Y8zr_RzLdDFg9VIO7SR1-35" value="&lt;div&gt;&lt;font style=&quot;font-size: 13px;&quot;&gt;Ist EXECUTE&amp;nbsp;&lt;/font&gt;&lt;/div&gt;&lt;div&gt;&lt;font style=&quot;font-size: 13px;&quot;&gt;Bedingung erfüllt?&lt;/font&gt;&lt;/div&gt;" style="rhombus;whiteSpace=wrap;html=1;shadow=0;fontFamily=Helvetica;fontSize=12;align=center;strokeWidth=1;spacing=6;spacingTop=-4;" vertex="1" parent="WIyWlLk6GJQsqaUBKTNV-1">
          <mxGeometry x="290" y="430" width="190" height="80" as="geometry" />
        </mxCell>
      </root>
    </mxGraphModel>
  </diagram>
</mxfile>
